<?xml version="1.0" ?><svg viewBox="0 0 22.156 22.156" xmlns="http://www.w3.org/2000/svg"><g data-name="Layer 2" id="Layer_2"><g data-name="Layer 1" id="Layer_1-2"><path d="M19.135,0H3.021A3.024,3.024,0,0,0,0,3.022V19.135a3.024,3.024,0,0,0,3.021,3.021H19.135a3.024,3.024,0,0,0,3.021-3.021V3.022A3.024,3.024,0,0,0,19.135,0Zm2.35,19.135a2.352,2.352,0,0,1-2.35,2.35H3.021a2.353,2.353,0,0,1-2.35-2.35V3.022A2.354,2.354,0,0,1,3.021.671H19.135a2.353,2.353,0,0,1,2.35,2.351ZM17.432,2.6c-1.6.58-2.691,2.024-3.751,3.126L5.025,3.861a1.431,1.431,0,0,0-.941.121L3.065,4.5a.885.885,0,0,0,.041,1.59l7.226,3.188-3.678,3.9a.234.234,0,0,1-.159.065c-.879-.008-2.3-.267-3.064.3-.367.289-1.278.576-1.191,1.138a.6.6,0,0,0,.381.509l2.77,1.1L4.329,17.353a.336.336,0,1,0,.475.474l1.062-1.061,1.1,2.77a.6.6,0,0,0,.565.382c.5.051.833-.881,1.082-1.193.57-.755.309-2.189.3-3.063a.2.2,0,0,1,.065-.16l3.9-3.678L16.07,19.05a.886.886,0,0,0,1.59.041l.514-1.019a1.429,1.429,0,0,0,.121-.94L16.434,8.475l1.937-1.826C19.658,5.343,21.4.954,17.432,2.6ZM17.9,6.167l-2.068,1.95a.334.334,0,0,0-.1.315l1.9,8.841c.14.381-.461,1.182-.579,1.516a.205.205,0,0,1-.376-.01l-3.379-7.66a.339.339,0,0,0-.538-.109l-4.246,4c-.483.372-.179,1.582-.2,2.35a3.355,3.355,0,0,1-.772,1.807L6.383,16.249c.273-.341,1.025-.767.659-1.135s-.785.377-1.134.66L2.986,14.61a3.344,3.344,0,0,1,1.8-.772c.861-.019,1.986.279,2.354-.2l4-4.246a.339.339,0,0,0-.109-.538L3.377,5.472a.2.2,0,0,1-.01-.376l1.02-.514a.747.747,0,0,1,.5-.064l8.841,1.9a.34.34,0,0,0,.315-.1L15.982,4.26c.3-.406,2.721-1.714,3.182-1.267C19.565,3.393,18.576,5.494,17.9,6.167Z" id="flights"/></g></g></svg>